<svg width="66" height="67" viewBox="0 0 66 67" fill="none" xmlns="http://www.w3.org/2000/svg">
<path d="M62.7147 44.3986V60.8343C62.7147 61.9794 62.2598 63.0777 61.45 63.8875C60.6403 64.6972 59.542 65.1521 58.3968 65.1521H7.60399C6.45882 65.1521 5.36056 64.6972 4.5508 63.8875C3.74105 63.0777 3.28613 61.9794 3.28613 60.8343V44.3986" stroke="#007AFF" stroke-width="2" stroke-linejoin="round"/>
<path d="M62.7147 39.0779V55.5229C62.7122 56.6664 62.2562 57.7623 61.4467 58.5701C60.6373 59.3778 59.5404 59.8315 58.3968 59.8315H7.60399C6.46043 59.8315 5.36357 59.3778 4.55408 58.5701C3.74459 57.7623 3.28859 56.6664 3.28613 55.5229V39.0779" stroke="#007AFF" stroke-width="2" stroke-linejoin="round"/>
<path d="M59.0004 29.0864H7.00042C4.94907 29.0864 3.28613 30.7494 3.28613 32.8007V50.4436C3.28613 52.4949 4.94907 54.1579 7.00042 54.1579H59.0004C61.0518 54.1579 62.7147 52.4949 62.7147 50.4436V32.8007C62.7147 30.7494 61.0518 29.0864 59.0004 29.0864Z" stroke="#007AFF" stroke-width="2" stroke-linejoin="round"/>
<path d="M23.7148 54.1578H42.2863" stroke="#00BFA5" stroke-width="2" stroke-linecap="round" stroke-linejoin="round"/>
<path d="M23.7148 59.8314H42.2863" stroke="#00BFA5" stroke-width="2" stroke-linecap="round" stroke-linejoin="round"/>
<path d="M42.2863 29.0864H23.7148V65.1521H42.2863V29.0864Z" stroke="#00BFA5" stroke-width="2" stroke-linecap="round" stroke-linejoin="round"/>
<path d="M33.0007 46.6086C35.8213 46.6086 38.1078 44.3553 38.1078 41.5757C38.1078 38.7961 35.8213 36.5428 33.0007 36.5428C30.1801 36.5428 27.8936 38.7961 27.8936 41.5757C27.8936 44.3553 30.1801 46.6086 33.0007 46.6086Z" stroke="#00BFA5" stroke-width="2" stroke-linecap="round" stroke-linejoin="round"/>
<path d="M9.79506 37.36C11.0772 37.36 12.1165 36.3207 12.1165 35.0386C12.1165 33.7565 11.0772 32.7172 9.79506 32.7172C8.51297 32.7172 7.47363 33.7565 7.47363 35.0386C7.47363 36.3207 8.51297 37.36 9.79506 37.36Z" stroke="#00BFA5" stroke-width="2" stroke-linecap="round" stroke-linejoin="round"/>
<path d="M56.5206 50.6664C57.8027 50.6664 58.8421 49.6271 58.8421 48.345C58.8421 47.0629 57.8027 46.0236 56.5206 46.0236C55.2386 46.0236 54.1992 47.0629 54.1992 48.345C54.1992 49.6271 55.2386 50.6664 56.5206 50.6664Z" stroke="#00BFA5" stroke-width="2" stroke-linecap="round" stroke-linejoin="round"/>
</svg>
