<svg width="66" height="66" viewBox="0 0 66 66" fill="none" xmlns="http://www.w3.org/2000/svg">
<path d="M44.4699 16.1707H30.1699V1.87073L44.4699 16.1707Z" stroke="#007AFF" stroke-width="2" stroke-linejoin="round"/>
<path d="M24.5404 15.2808H7.69043V26.8408H24.5404V15.2808Z" stroke="#00BFA5" stroke-width="2" stroke-linecap="round" stroke-linejoin="round"/>
<path d="M7.69043 36.2808H19.2504" stroke="#00BFA5" stroke-width="2" stroke-linecap="round" stroke-linejoin="round"/>
<path d="M7.69043 43.9707H27.4304" stroke="#00BFA5" stroke-width="2" stroke-linecap="round" stroke-linejoin="round"/>
<path d="M7.69043 51.6508H35.1204" stroke="#00BFA5" stroke-width="2" stroke-linecap="round" stroke-linejoin="round"/>
<path d="M44.47 51.6507V64.7207H1.5V1.87073H30.17L44.47 16.1707V28.5907" stroke="#007AFF" stroke-width="2" stroke-linejoin="round"/>
<path d="M51.1195 51.2907L48.4395 48.6407" stroke="#00BFA5" stroke-width="2" stroke-linecap="round" stroke-linejoin="round"/>
<path d="M39.4097 52.3908C46.4403 52.3908 52.1397 46.6914 52.1397 39.6608C52.1397 32.6302 46.4403 26.9308 39.4097 26.9308C32.3791 26.9308 26.6797 32.6302 26.6797 39.6608C26.6797 46.6914 32.3791 52.3908 39.4097 52.3908Z" stroke="#007AFF" stroke-width="2" stroke-linejoin="round"/>
<path d="M39.41 48.6108C44.3529 48.6108 48.36 44.6038 48.36 39.6608C48.36 34.7179 44.3529 30.7108 39.41 30.7108C34.467 30.7108 30.46 34.7179 30.46 39.6608C30.46 44.6038 34.467 48.6108 39.41 48.6108Z" stroke="#00BFA5" stroke-width="2" stroke-linecap="round" stroke-linejoin="round"/>
<path d="M51.2658 51.1883L50.9617 51.4924C50.1377 52.3164 50.1377 53.6524 50.9617 54.4764L60.5854 64.1001C61.4095 64.9241 62.7454 64.9241 63.5694 64.1001L63.8735 63.796C64.6975 62.972 64.6975 61.6361 63.8735 60.812L54.2498 51.1883C53.4258 50.3643 52.0898 50.3643 51.2658 51.1883Z" stroke="#007AFF" stroke-width="2" stroke-linejoin="round"/>
</svg>
