<svg width="66" height="66" viewBox="0 0 66 66" fill="none" xmlns="http://www.w3.org/2000/svg">
<path d="M39.63 51.5008H61.19C62.0688 51.4981 62.9107 51.1472 63.5311 50.5248C64.1516 49.9025 64.5 49.0596 64.5 48.1808V4.61078C64.4974 3.73373 64.1478 2.89335 63.5276 2.27317C62.9074 1.653 62.0671 1.30342 61.19 1.30078H4.81C3.93294 1.30342 3.09256 1.653 2.47239 2.27317C1.85222 2.89335 1.50264 3.73373 1.5 4.61078V48.1808C1.5 49.0613 1.84978 49.9058 2.47241 50.5284C2.7807 50.8367 3.14669 51.0812 3.54949 51.2481C3.95229 51.4149 4.38401 51.5008 4.82 51.5008H10.38" stroke="#007AFF" stroke-width="2" stroke-linecap="round" stroke-linejoin="round"/>
<path d="M26.6304 55.8007V58.9107L21.6504 64.3007H44.6104L39.6304 58.9107V51.5007" stroke="#007AFF" stroke-width="2" stroke-linecap="round" stroke-linejoin="round"/>
<path d="M48.0703 39.0608H64.5003" stroke="#007AFF" stroke-width="2" stroke-linecap="round" stroke-linejoin="round"/>
<path d="M1.5 39.0608H15.78" stroke="#007AFF" stroke-width="2" stroke-linecap="round" stroke-linejoin="round"/>
<path d="M53.6557 33.4722L32.3506 12.1671L17.2892 27.2285L38.5943 48.5336L53.6557 33.4722Z" stroke="#00BFA5" stroke-width="2" stroke-linecap="round" stroke-linejoin="round"/>
<path d="M20.8398 30.7808L31.1698 20.4508" stroke="#00BFA5" stroke-width="2" stroke-linecap="round" stroke-linejoin="round"/>
<path d="M24.0703 34.0107L27.1903 30.8907" stroke="#00BFA5" stroke-width="2" stroke-linecap="round" stroke-linejoin="round"/>
<path d="M33.0996 43.0508L36.2196 39.9308" stroke="#00BFA5" stroke-width="2" stroke-linecap="round" stroke-linejoin="round"/>
<path d="M39.6647 49.6102L16.21 26.1555L9.54194 32.8235L32.9967 56.2783L39.6647 49.6102Z" stroke="#007AFF" stroke-width="2" stroke-linecap="round" stroke-linejoin="round"/>
<path d="M18.9697 36.5208L29.2997 46.8507" stroke="#007AFF" stroke-width="2" stroke-linecap="round" stroke-linejoin="round"/>
<path d="M19.2998 42.5758L23.2455 46.5215L6.2749 63.492C6.01582 63.7511 5.70825 63.9566 5.36976 64.0968C5.03126 64.237 4.66846 64.3092 4.30207 64.3092C3.93568 64.3092 3.57288 64.237 3.23439 64.0968C2.89589 63.9566 2.58832 63.7511 2.32924 63.492C2.07017 63.2329 1.86466 62.9254 1.72445 62.5869C1.58424 62.2484 1.51207 61.8856 1.51207 61.5192C1.51207 61.1528 1.58423 60.79 1.72445 60.4515C1.86466 60.113 2.07017 59.8054 2.32924 59.5464L19.2998 42.5758V42.5758Z" stroke="#007AFF" stroke-width="2" stroke-linecap="round" stroke-linejoin="round"/>
</svg>
