<svg width="66" height="66" viewBox="0 0 66 66" fill="none" xmlns="http://www.w3.org/2000/svg">
<path d="M1.5 21.4308V4.61078C1.50264 3.73373 1.85222 2.89335 2.47239 2.27317C3.09256 1.653 3.93294 1.30342 4.81 1.30078H61.19C62.0671 1.30342 62.9074 1.653 63.5276 2.27317C64.1478 2.89335 64.4974 3.73373 64.5 4.61078V48.1908C64.4974 49.0678 64.1478 49.9082 63.5276 50.5284C62.9074 51.1486 62.0671 51.4981 61.19 51.5008H26.37" stroke="#007AFF" stroke-width="2" stroke-linecap="round" stroke-linejoin="round"/>
<path d="M39.6301 51.5007V58.9107L44.6101 64.3007H26.3701" stroke="#007AFF" stroke-width="2" stroke-linecap="round" stroke-linejoin="round"/>
<path d="M26.3701 39.0608H64.5001" stroke="#007AFF" stroke-width="2" stroke-linecap="round" stroke-linejoin="round"/>
<path d="M18.08 26.4008H4.82C2.98641 26.4008 1.5 27.8872 1.5 29.7208V60.9908C1.5 62.8243 2.98641 64.3108 4.82 64.3108H18.08C19.9136 64.3108 21.4 62.8243 21.4 60.9908V29.7208C21.4 27.8872 19.9136 26.4008 18.08 26.4008Z" stroke="#00BFA5" stroke-width="2" stroke-linecap="round" stroke-linejoin="round"/>
<path d="M11.4404 59.3308H11.4504" stroke="#00BFA5" stroke-width="2" stroke-linecap="round" stroke-linejoin="round"/>
<path d="M8.95996 31.3707H13.93" stroke="#00BFA5" stroke-width="2" stroke-linecap="round" stroke-linejoin="round"/>
</svg>
