<svg width="66" height="66" viewBox="0 0 66 66" fill="none" xmlns="http://www.w3.org/2000/svg">
<path d="M47.93 25.9208H5.73C3.39384 25.9208 1.5 27.8146 1.5 30.1508V56.2408C1.5 58.5769 3.39384 60.4708 5.73 60.4708H47.93C50.2662 60.4708 52.16 58.5769 52.16 56.2408V30.1508C52.16 27.8146 50.2662 25.9208 47.93 25.9208Z" stroke="#007AFF" stroke-width="2" stroke-linecap="round" stroke-linejoin="round"/>
<path d="M7.5 25.9207V20.0107C7.5 18.8649 7.95514 17.7661 8.7653 16.956C9.57546 16.1458 10.6743 15.6907 11.82 15.6907H53.82C54.3882 15.6894 54.951 15.8001 55.4763 16.0167C56.0015 16.2332 56.479 16.5512 56.8812 16.9524C57.2834 17.3537 57.6025 17.8304 57.8202 18.3552C58.0379 18.88 58.15 19.4425 58.15 20.0107V45.9107C58.15 47.0591 57.6938 48.1604 56.8818 48.9725C56.0697 49.7845 54.9684 50.2407 53.82 50.2407H52.16" stroke="#007AFF" stroke-width="2" stroke-linecap="round" stroke-linejoin="round"/>
<path d="M13.8398 15.3607V9.46074C13.8398 8.31235 14.296 7.211 15.1081 6.39896C15.9201 5.58693 17.0215 5.13074 18.1698 5.13074H60.1698C61.3182 5.13074 62.4196 5.58693 63.2316 6.39896C64.0436 7.211 64.4998 8.31235 64.4998 9.46074V35.3607C64.4972 36.5074 64.0398 37.6062 63.2281 38.416C62.4163 39.2259 61.3165 39.6807 60.1698 39.6807H58.1698" stroke="#007AFF" stroke-width="2" stroke-linecap="round" stroke-linejoin="round"/>
<path d="M26.8296 34.2107L29.7496 40.1307L36.2696 41.0707L31.5496 45.6807L32.6596 52.1707L26.8296 49.1007L20.9896 52.1707L22.1096 45.6807L17.3896 41.0707L23.9096 40.1307L26.8296 34.2107Z" stroke="#00BFA5" stroke-width="2" stroke-linecap="round" stroke-linejoin="round"/>
</svg>
